<svg version="1.1" xmlns="http://www.w3.org/2000/svg" xmlns:xlink="http://www.w3.org/1999/xlink" width="173.07012" height="88.63222" viewBox="0,0,173.07012,88.63222"><g transform="translate(-153.82431,-135.5052)"><g data-paper-data="{&quot;isPaintingLayer&quot;:true}" fill-rule="nonzero" stroke-linecap="butt" stroke-linejoin="miter" stroke-miterlimit="10" stroke-dasharray="" stroke-dashoffset="0" style="mix-blend-mode: normal"><g data-paper-data="{&quot;index&quot;:null}"><path d="M250.25099,223.877c1.396,-3.364 3.542,-4.421 3.542,-4.421l3.741,1.535l3.784,-14.01c-13.618,-7.485 -16.503,-15.701 -16.503,-15.701l11.272,-16.879l11.175,31.393l-7.683,17.881l-9.328,0.202" fill="#bf6c46" stroke="none" stroke-width="1"/><path d="M253.79299,219.456l3.741,1.535l3.784,-14.01c-13.618,-7.485 -16.503,-15.701 -16.503,-15.701l11.272,-16.879l11.175,31.393l-7.683,17.881l-9.328,0.202c1.396,-3.364 3.542,-4.421 3.542,-4.421z" fill="none" stroke="#80432f" stroke-width="0.5"/><path d="M251.84499,223.784c0,0 0.21,-0.586 0.513,-1.112c0.153,-0.265 0.33,-0.513 0.474,-0.687c0.157,-0.161 0.262,-0.269 0.262,-0.269c0,0 -0.083,0.123 -0.209,0.308c-0.11,0.194 -0.237,0.46 -0.337,0.737c-0.201,0.559 -0.298,1.131 -0.298,1.131z" fill="#80432f" stroke="none" stroke-width="1"/></g><g data-paper-data="{&quot;index&quot;:null}"><path d="M201.06899,223.877c0.598,-2.462 2.415,-3.919 2.415,-3.919l4.265,1.507l-12.82,-20.845c0,0 8.231,-1.708 8.154,-1.557c-0.077,0.151 8.956,24.462 8.956,24.462l-10.97,0.352" fill="#bf6c46" stroke="none" stroke-width="1"/><path d="M203.48399,219.958l4.265,1.507l-12.82,-20.845c0,0 8.231,-1.708 8.154,-1.557c-0.077,0.151 8.956,24.462 8.956,24.462l-10.97,0.352c0.598,-2.462 2.415,-3.919 2.415,-3.919z" fill="none" stroke="#80432f" stroke-width="0.5"/><path d="M201.97199,223.784c0,0 0.21,-0.586 0.513,-1.112c0.153,-0.265 0.33,-0.513 0.474,-0.687c0.158,-0.161 0.262,-0.269 0.262,-0.269c0,0 -0.083,0.123 -0.208,0.308c-0.111,0.194 -0.238,0.46 -0.338,0.737c-0.201,0.559 -0.298,1.131 -0.298,1.131z" fill="#80432f" stroke="none" stroke-width="1"/></g><g data-paper-data="{&quot;index&quot;:null}"><path d="M183.46424,157.575c0,0 -0.07,2.004 -3.837,2.361c-1.762,0.167 -4.333,-0.026 -8.085,-0.955c-11.773,-2.913 -13.968,-3.717 -13.968,-3.717c0,0 -3.642,-1.456 -2.594,-5.324h10.875c0,0 3.541,-3.918 5.487,-5.324h9.378l1.696,-8.238c0,0 9.828,24.914 14.117,30.288c0,0 1.547,2.16 9.529,2.16c7.782,0 36.266,-6.379 51.481,-0.753" fill="none" stroke="#80432f" stroke-width="0.5"/><path d="M257.54324,168.148c0,0 2.04,3.214 -0.19,7.785c-2.23,4.571 -26.106,13.468 -27.512,13.804c0,0 -30.526,-9.472 -55.141,-29.939c-1.461,-0.389 -1.17,-0.353 -3.158,-0.817c-11.81,-2.759 -13.968,-3.717 -13.968,-3.717c0,0 -3.642,-1.457 -2.594,-5.324h10.875c0,0 3.541,-3.918 5.487,-5.325h9.378l1.696,-8.237c0,0 9.828,24.913 14.117,30.288c0,0 1.547,2.16 9.529,2.16c7.782,0 36.266,-6.379 51.481,-0.754" fill="#d9824c" stroke="none" stroke-width="1"/></g><g data-paper-data="{&quot;index&quot;:null}"><path d="M183.95699,147.512l-3.594,-2.896l1.646,-7.183l1.948,10.079" fill="#f5ceb8" stroke="none" stroke-width="1"/><path d="M182.08399,136.981l2.095,10.71l-3.806,-3.075" fill="none" stroke="#80432f" stroke-width="0.5"/></g><g data-paper-data="{&quot;index&quot;:null}"><path d="M173.26499,144.616v-7.635l4.703,7.635" fill="none" stroke="#80432f" stroke-width="0.5"/><path d="M173.26499,144.616v-7.635l4.703,7.635" fill="#d9824c" stroke="none" stroke-width="1"/><path d="M173.26499,144.616v-7.635l4.703,7.635" fill="none" stroke="#80432f" stroke-width="0.5"/><path d="M175.83499,144.616l-2.353,-6.994" fill="none" stroke="#80432f" stroke-width="0.5"/><path d="M173.26599,144.616l0.188,-6.781c0,0 2.332,6.705 2.381,6.781z" fill="#f5ceb8" stroke="none" stroke-width="1"/></g><g data-paper-data="{&quot;index&quot;:null}"><path d="M182.74775,157.575c0,0 -0.07,2.004 -3.837,2.361c-1.762,0.167 -4.333,-0.026 -8.085,-0.955c-11.773,-2.913 -13.968,-3.717 -13.968,-3.717c0,0 -3.642,-1.456 -2.594,-5.324h10.875c0,0 3.541,-3.918 5.487,-5.324h9.378l1.696,-8.238c0,0 9.828,24.914 14.117,30.288c0,0 1.547,2.16 9.529,2.16c7.782,0 36.266,-6.379 51.481,-0.753" fill="none" stroke="#80432f" stroke-width="0.5"/><path d="M229.12475,189.737c0,0 -10.985,8.493 -29.765,12.742c-33.523,7.584 -25.352,-42.832 -25.352,-42.832" fill="none" stroke="#80432f" stroke-width="0.5"/><path d="M229.08975,189.737c0,0 -10.985,8.493 -29.765,12.742c-33.523,7.584 -25.352,-42.832 -25.352,-42.832" fill="#d9824c" stroke="none" stroke-width="1"/><path d="M176.88075,159.97c0.083,0.394 -1.739,26.019 10.326,32.237c16.86,8.689 40.706,-4.2 41.12,-5.064c0.461,1.293 0.858,2.499 0.521,2.77c-0.336,0.271 -24.925,15.961 -40.559,12.877c-19.403,-3.828 -14.714,-41.029 -14.405,-43.029c0.023,-0.152 2.997,0.209 2.997,0.209" fill="#f5ceb8" stroke="none" stroke-width="1"/><path d="M228.56875,187.145c-11.251,5.991 -22.513,10.157 -37.84,6.744c-15.961,-3.553 -13.743,-33.915 -13.743,-33.915" fill="none" stroke="#80432f" stroke-width="0.5"/><path d="M229.12475,189.737c0,0 -10.985,8.493 -29.765,12.742c-33.523,7.584 -25.352,-42.832 -25.352,-42.832" fill="none" stroke="#80432f" stroke-width="0.5"/></g><g data-paper-data="{&quot;index&quot;:null}" stroke="none" stroke-width="1"><path d="M168.63899,150.643c0,0 1.622,-1.532 2.196,-1.933h3.267c0,0 -0.985,2.134 -5.463,1.933" fill="#232020"/><path d="M154.30199,152.061c-0.288,-1.217 0.189,-2.319 0.189,-2.319h2.893c0,2.059 -3.064,2.392 -3.082,2.319" fill="#232020"/><path d="M168.58199,150.623c0.655,-0.714 1.355,-1.378 2.069,-2.024l0.039,-0.037h0.057c0.799,-0.008 1.597,0.003 2.395,0.021c0.798,0.03 1.596,0.056 2.394,0.126c-0.798,0.07 -1.596,0.097 -2.394,0.126c-0.798,0.018 -1.596,0.03 -2.395,0.021l0.096,-0.036c-0.729,0.629 -1.473,1.241 -2.261,1.803" fill="#80432f"/></g><g data-paper-data="{&quot;index&quot;:null}"><path d="M257.18499,168.072c0,0 47.29,15.722 65.498,-22.904c0,0 16.662,29.183 -18.357,43.598c-21.151,9.041 -46.792,-15.57 -46.792,-15.57" fill="#d9824c" stroke="none" stroke-width="1"/><path d="M325.92199,167.639c-0.171,0.722 -0.442,-0.556 -0.442,-0.556l-1.245,0.941l-0.545,-1.585l-1.474,0.566l-0.418,-1.429l-1.659,0.713l-0.653,-1.871l-1.872,0.59l-0.074,-1.766l-2.152,0.203l-0.075,-1.808c0,0 -1.55,0.179 -1.74,0.282l-0.548,-1.734l-1.618,0.208c0,0 6.937,-5.989 11.202,-14.986c0.655,-0.308 5.724,11.596 3.313,22.232" fill="#f5ceb8" stroke="none" stroke-width="1"/><path d="M257.18499,168.072c0,0 47.29,15.722 65.498,-22.904c0,0 16.662,29.183 -18.357,43.598c-21.052,9.092 -46.493,-15.215 -46.493,-15.215" fill="none" stroke="#80432f" stroke-width="0.5"/></g><g data-paper-data="{&quot;index&quot;:null}"><path d="M258.19124,173.9l-20.602,49.977h-9.878c0,0 0.1,-2.562 3.194,-4.922l4.664,2.122l3.07,-14.635c0,0 -10.379,-9.838 -9.979,-27.419" fill="#d9824c" stroke="none" stroke-width="1"/><path d="M258.19124,173.55l-20.602,50.327h-9.878c0,0 0.1,-2.561 3.194,-4.922l4.664,2.123l3.07,-14.636c0,0 -10.379,-9.839 -9.979,-27.418" fill="none" stroke="#80432f" stroke-width="0.5"/><path d="M229.14824,223.784c0,0 0.21,-0.586 0.513,-1.112c0.153,-0.265 0.33,-0.513 0.474,-0.687c0.158,-0.161 0.263,-0.269 0.263,-0.269c0,0 -0.084,0.123 -0.209,0.308c-0.11,0.194 -0.237,0.46 -0.338,0.737c-0.2,0.559 -0.297,1.131 -0.297,1.131z" fill="#80432f" stroke="none" stroke-width="1"/></g><g data-paper-data="{&quot;index&quot;:null}"><path d="M197.74699,191.127c-8.63,10.297 -4.888,11.151 -4.888,11.151l-15.545,21.449h-10.196c0,-1.407 3.193,-4.221 3.193,-4.221l4.39,1.758l12.171,-34.758" fill="#d9824c" stroke="none" stroke-width="1"/><path d="M197.67299,191.278c-8.631,10.297 -4.889,11.151 -4.889,11.151l-15.545,21.448h-10.196c0,-1.407 3.193,-4.22 3.193,-4.22l4.39,1.757l12.172,-34.757" fill="none" stroke="#80432f" stroke-width="0.5"/><path d="M168.10899,223.823c0,0 0.21,-0.586 0.513,-1.113c0.152,-0.264 0.329,-0.512 0.474,-0.686c0.157,-0.162 0.262,-0.269 0.262,-0.269c0,0 -0.083,0.123 -0.209,0.308c-0.11,0.194 -0.237,0.46 -0.338,0.737c-0.2,0.559 -0.297,1.131 -0.297,1.131z" fill="#80432f" stroke="none" stroke-width="1"/></g></g></g></svg>